<svg width="20" height="20" viewBox="0 0 20 20" fill="none" xmlns="http://www.w3.org/2000/svg">
<path d="M7.74546 10.9091C7.40394 10.9772 7.05086 10.9598 6.71774 10.8583C6.38461 10.7567 6.08181 10.5743 5.83636 10.3273L3.63636 8.05453C3.34336 7.76606 3.11066 7.42219 2.95183 7.04293C2.793 6.66368 2.7112 6.25661 2.7112 5.84544C2.7112 5.43426 2.793 5.02719 2.95183 4.64794C3.11066 4.26868 3.34336 3.92481 3.63636 3.63634V3.63634C3.92483 3.34334 4.2687 3.11064 4.64796 2.95181C5.02721 2.79298 5.43428 2.71118 5.84545 2.71118C6.25663 2.71118 6.66369 2.79298 7.04295 2.95181C7.42221 3.11064 7.76608 3.34334 8.05455 3.63634L10.2909 5.87271C10.5345 6.10621 10.7179 6.39518 10.8256 6.71496C10.9332 7.03474 10.9619 7.37581 10.9091 7.70907M7.27273 7.27271L12.7273 12.7273L7.27273 7.27271ZM12.1818 9.09089C12.5263 9.03364 12.8794 9.05991 13.2117 9.16748C13.5439 9.27505 13.8454 9.46078 14.0909 9.70907L16.3636 12C16.9388 12.5805 17.2614 13.3646 17.2614 14.1818C17.2614 14.999 16.9388 15.7831 16.3636 16.3636C15.7827 16.9415 14.9967 17.2659 14.1773 17.2659C13.3579 17.2659 12.5718 16.9415 11.9909 16.3636L9.72727 14.0909C9.47861 13.8509 9.29108 13.5547 9.18036 13.2273C9.06964 12.8999 9.03897 12.5508 9.09091 12.2091L12.1818 9.09089Z" stroke="#1E293B" stroke-width="1.2" stroke-linecap="round" stroke-linejoin="round"/>
</svg>
